<?xml version="1.0" standalone="no"?><!DOCTYPE svg PUBLIC "-//W3C//DTD SVG 1.1//EN" "http://www.w3.org/Graphics/SVG/1.1/DTD/svg11.dtd"><svg xmlns:xlink="http://www.w3.org/1999/xlink" version="1.1" style="font-family:'lucida grande', 'lucida sans unicode', arial, helvetica, sans-serif;font-size:12px;" xmlns="http://www.w3.org/2000/svg" width="600" height="400"><desc>Created with Highcharts 4.2.7</desc><defs><clipPath id="highcharts-110"><rect x="1" y="1" width="277" height="516"></rect></clipPath></defs><rect x="72" y="48" width="518" height="279" fill="#ffffff"></rect><path fill="rgb(255, 255, 255)" fill-opacity=" .5" d="M 71.5 48 L 71.5 327 123.5 327 123.5 48"></path><path fill="rgb(255, 255, 255)" fill-opacity=" .5" d="M 175.5 48 L 175.5 327 226.5 327 226.5 48"></path><path fill="rgb(255, 255, 255)" fill-opacity=" .5" d="M 278.5 48 L 278.5 327 330.5 327 330.5 48"></path><path fill="rgb(255, 255, 255)" fill-opacity=" .5" d="M 382.5 48 L 382.5 327 434.5 327 434.5 48"></path><path fill="rgb(255, 255, 255)" fill-opacity=" .5" d="M 485.5 48 L 485.5 327 537.5 327 537.5 48"></path><g class="highcharts-grid"></g><g class="highcharts-grid"><path fill="none" d="M 71.5 48 L 71.5 327" stroke="#C0C0C0" stroke-width="1" opacity="1"></path><path fill="none" d="M 123.5 48 L 123.5 327" stroke="#C0C0C0" stroke-width="1" opacity="1"></path><path fill="none" d="M 175.5 48 L 175.5 327" stroke="#C0C0C0" stroke-width="1" opacity="1"></path><path fill="none" d="M 226.5 48 L 226.5 327" stroke="#C0C0C0" stroke-width="1" opacity="1"></path><path fill="none" d="M 278.5 48 L 278.5 327" stroke="#C0C0C0" stroke-width="1" opacity="1"></path><path fill="none" d="M 330.5 48 L 330.5 327" stroke="#C0C0C0" stroke-width="1" opacity="1"></path><path fill="none" d="M 382.5 48 L 382.5 327" stroke="#C0C0C0" stroke-width="1" opacity="1"></path><path fill="none" d="M 434.5 48 L 434.5 327" stroke="#C0C0C0" stroke-width="1" opacity="1"></path><path fill="none" d="M 485.5 48 L 485.5 327" stroke="#C0C0C0" stroke-width="1" opacity="1"></path><path fill="none" d="M 537.5 48 L 537.5 327" stroke="#C0C0C0" stroke-width="1" opacity="1"></path><path fill="none" d="M 590.5 48 L 590.5 327" stroke="#C0C0C0" stroke-width="1" opacity="1"></path></g><rect x="72" y="48" width="518" height="279" stroke="#026FC1" stroke-width="2" fill="none"></rect><g class="highcharts-axis"><path fill="none" d="M 72 104.5 L 62 104.5" stroke="#C0D0E0" stroke-width="1" opacity="1"></path><path fill="none" d="M 72 160.5 L 62 160.5" stroke="#C0D0E0" stroke-width="1" opacity="1"></path><path fill="none" d="M 72 215.5 L 62 215.5" stroke="#C0D0E0" stroke-width="1" opacity="1"></path><path fill="none" d="M 72 271.5 L 62 271.5" stroke="#C0D0E0" stroke-width="1" opacity="1"></path><path fill="none" d="M 72 327.5 L 62 327.5" stroke="#C0D0E0" stroke-width="1" opacity="1"></path><path fill="none" d="M 72 47.5 L 62 47.5" stroke="#C0D0E0" stroke-width="1" opacity="1"></path><path fill="none" d="M 71.5 48 L 71.5 327" stroke="#C0D0E0" stroke-width="1"></path></g><g class="highcharts-axis"><path fill="none" d="M 71.5 327 L 71.5 337" stroke="#C0D0E0" stroke-width="1" opacity="1"></path><path fill="none" d="M 123.5 327 L 123.5 337" stroke="#C0D0E0" stroke-width="1" opacity="1"></path><path fill="none" d="M 175.5 327 L 175.5 337" stroke="#C0D0E0" stroke-width="1" opacity="1"></path><path fill="none" d="M 226.5 327 L 226.5 337" stroke="#C0D0E0" stroke-width="1" opacity="1"></path><path fill="none" d="M 278.5 327 L 278.5 337" stroke="#C0D0E0" stroke-width="1" opacity="1"></path><path fill="none" d="M 330.5 327 L 330.5 337" stroke="#C0D0E0" stroke-width="1" opacity="1"></path><path fill="none" d="M 382.5 327 L 382.5 337" stroke="#C0D0E0" stroke-width="1" opacity="1"></path><path fill="none" d="M 434.5 327 L 434.5 337" stroke="#C0D0E0" stroke-width="1" opacity="1"></path><path fill="none" d="M 485.5 327 L 485.5 337" stroke="#C0D0E0" stroke-width="1" opacity="1"></path><path fill="none" d="M 537.5 327 L 537.5 337" stroke="#C0D0E0" stroke-width="1" opacity="1"></path><path fill="none" d="M 590.5 327 L 590.5 337" stroke="#C0D0E0" stroke-width="1" opacity="1"></path></g><g class="highcharts-series-group"><g class="highcharts-series highcharts-series-0" transform="translate(590,327) rotate(90) scale(-1,1) scale(1 1)" width="518" height="279" clip-path="url(#highcharts-110)"><rect x="237.5" y="73.5" width="27" height="445" stroke="#FFFFFF" stroke-width="1" fill="#50B432" rx="0" ry="0"></rect><rect x="181.5" y="93.5" width="27" height="425" stroke="#FFFFFF" stroke-width="1" fill="#ED561B" rx="0" ry="0"></rect><rect x="125.5" y="104.5" width="27" height="414" stroke="#FFFFFF" stroke-width="1" fill="#DDDF00" rx="0" ry="0"></rect><rect x="69.5" y="114.5" width="27" height="404" stroke="#FFFFFF" stroke-width="1" fill="#24CBE5" rx="0" ry="0"></rect><rect x="14.5" y="124.5" width="27" height="394" stroke="#FFFFFF" stroke-width="1" fill="#e564dd" rx="0" ry="0"></rect></g><g class="highcharts-markers highcharts-series-0" transform="translate(590,327) rotate(90) scale(-1,1) scale(1 1)" width="518" height="279" clip-path="none"></g><g class="highcharts-series highcharts-series-1" transform="translate(590,327) rotate(90) scale(-1,1) scale(1 1)" width="518" height="279" clip-path="url(#highcharts-110)"></g><g class="highcharts-markers highcharts-series-1" transform="translate(590,327) rotate(90) scale(-1,1) scale(1 1)" width="518" height="279" clip-path="none"></g></g><text x="300" text-anchor="middle" class="highcharts-title" style="color:#000000;font-size:20px;font-family:'times new roman', sans-serif;text-transform:none;fill:#000000;width:536px;" y="25"><tspan>Os candidatos mais amados</tspan></text><g class="highcharts-data-labels highcharts-series-0" transform="translate(72,48) scale(1 1)" opacity="1"><g style="cursor:pointer;" transform="translate(434,17)"><text x="5" style="font-size:10px;font-weight:bold;font-family:'arial', sans-serif;color:#000000;text-shadow:none;fill:#000000;text-rendering:geometricprecision;" y="15"><tspan>43</tspan></text></g><g style="cursor:pointer;" transform="translate(414,73)"><text x="5" style="font-size:10px;font-weight:bold;font-family:'arial', sans-serif;color:#000000;text-shadow:none;fill:#000000;text-rendering:geometricprecision;" y="15"><tspan>41</tspan></text></g><g style="cursor:pointer;" transform="translate(403,129)"><text x="5" style="font-size:10px;font-weight:bold;font-family:'arial', sans-serif;color:#000000;text-shadow:none;fill:#000000;text-rendering:geometricprecision;" y="15"><tspan>40</tspan></text></g><g style="cursor:pointer;" transform="translate(393,185)"><text x="5" style="font-size:10px;font-weight:bold;font-family:'arial', sans-serif;color:#000000;text-shadow:none;fill:#000000;text-rendering:geometricprecision;" y="15"><tspan>39</tspan></text></g><g style="cursor:pointer;" transform="translate(383,240)"><text x="5" style="font-size:10px;font-weight:bold;font-family:'arial', sans-serif;color:#000000;text-shadow:none;fill:#000000;text-rendering:geometricprecision;" y="15"><tspan>38</tspan></text></g></g><g class="highcharts-data-labels highcharts-series-1" transform="translate(72,48) scale(1 1)" opacity="1"></g><g class="highcharts-legend" transform="translate(235,360)"><g><g><g class="highcharts-legend-item" transform="translate(8,3)"><text x="21" style="color:#333;font-size:9pt;font-weight:normal;cursor:pointer;font-family:'lucida grande','lucida sans unicode',arial,helvetica,sans-serif;text-transform:none;fill:#333;" text-anchor="start" y="15"><tspan>Em porcentagem</tspan></text><rect x="0" y="4" width="16" height="12" fill="#CCC"></rect></g></g></g></g><g class="highcharts-axis-labels highcharts-xaxis-labels"><text x="57" style="color:#000000;cursor:default;font-size:10px;font-family:'arial', sans-serif;text-transform:none;font-weight:normal;fill:#000000;width:188px;text-overflow:clip;" text-anchor="end" transform="translate(0,0)" y="79" opacity="1"><tspan>Amoedo</tspan></text><text x="57" style="color:#000000;cursor:default;font-size:10px;font-family:'arial', sans-serif;text-transform:none;font-weight:normal;fill:#000000;width:188px;text-overflow:clip;" text-anchor="end" transform="translate(0,0)" y="135" opacity="1"><tspan>Marina</tspan></text><text x="57" style="color:#000000;cursor:default;font-size:10px;font-family:'arial', sans-serif;text-transform:none;font-weight:normal;fill:#000000;width:188px;text-overflow:clip;" text-anchor="end" transform="translate(0,0)" y="191" opacity="1"><tspan>Haddad</tspan></text><text x="57" style="color:#000000;cursor:default;font-size:10px;font-family:'arial', sans-serif;text-transform:none;font-weight:normal;fill:#000000;width:188px;text-overflow:clip;" text-anchor="end" transform="translate(0,0)" y="247" opacity="1"><tspan>Ciro</tspan></text><text x="57" style="color:#000000;cursor:default;font-size:10px;font-family:'arial', sans-serif;text-transform:none;font-weight:normal;fill:#000000;width:188px;text-overflow:clip;" text-anchor="end" transform="translate(0,0)" y="303" opacity="1"><tspan>Bolsonaro</tspan></text></g><g class="highcharts-axis-labels highcharts-yaxis-labels"><text x="72" style="color:#000000;cursor:default;font-size:10px;font-family:'arial', sans-serif;text-transform:none;font-weight:normal;fill:#000000;" text-anchor="middle" transform="translate(0,0)" y="345" opacity="1">0</text><text x="123.8" style="color:#000000;cursor:default;font-size:10px;font-family:'arial', sans-serif;text-transform:none;font-weight:normal;fill:#000000;" text-anchor="middle" transform="translate(0,0)" y="345" opacity="1">5</text><text x="175.6" style="color:#000000;cursor:default;font-size:10px;font-family:'arial', sans-serif;text-transform:none;font-weight:normal;fill:#000000;" text-anchor="middle" transform="translate(0,0)" y="345" opacity="1">10</text><text x="227.39999999999998" style="color:#000000;cursor:default;font-size:10px;font-family:'arial', sans-serif;text-transform:none;font-weight:normal;fill:#000000;" text-anchor="middle" transform="translate(0,0)" y="345" opacity="1">15</text><text x="279.2" style="color:#000000;cursor:default;font-size:10px;font-family:'arial', sans-serif;text-transform:none;font-weight:normal;fill:#000000;" text-anchor="middle" transform="translate(0,0)" y="345" opacity="1">20</text><text x="331" style="color:#000000;cursor:default;font-size:10px;font-family:'arial', sans-serif;text-transform:none;font-weight:normal;fill:#000000;" text-anchor="middle" transform="translate(0,0)" y="345" opacity="1">25</text><text x="382.79999999999995" style="color:#000000;cursor:default;font-size:10px;font-family:'arial', sans-serif;text-transform:none;font-weight:normal;fill:#000000;" text-anchor="middle" transform="translate(0,0)" y="345" opacity="1">30</text><text x="434.59999999999997" style="color:#000000;cursor:default;font-size:10px;font-family:'arial', sans-serif;text-transform:none;font-weight:normal;fill:#000000;" text-anchor="middle" transform="translate(0,0)" y="345" opacity="1">35</text><text x="486.4" style="color:#000000;cursor:default;font-size:10px;font-family:'arial', sans-serif;text-transform:none;font-weight:normal;fill:#000000;" text-anchor="middle" transform="translate(0,0)" y="345" opacity="1">40</text><text x="538.2" style="color:#000000;cursor:default;font-size:10px;font-family:'arial', sans-serif;text-transform:none;font-weight:normal;fill:#000000;" text-anchor="middle" transform="translate(0,0)" y="345" opacity="1">45</text><text x="584" style="color:#000000;cursor:default;font-size:10px;font-family:'arial', sans-serif;text-transform:none;font-weight:normal;fill:#000000;" text-anchor="middle" transform="translate(0,0)" y="345" opacity="1">50</text></g><g class="highcharts-tooltip" display="none" style="cursor:default;padding:0;pointer-events:none;white-space:nowrap;" transform="translate(0,0)"><path fill="none" d="M 3.5 0.5 L 13.5 0.5 C 16.5 0.5 16.5 0.5 16.5 3.5 L 16.5 13.5 C 16.5 16.5 16.5 16.5 13.5 16.5 L 3.5 16.5 C 0.5 16.5 0.5 16.5 0.5 13.5 L 0.5 3.5 C 0.5 0.5 0.5 0.5 3.5 0.5"  stroke="black" stroke-opacity="0.049999999999999996" stroke-width="5" transform="translate(1, 1)"></path><path fill="none" d="M 3.5 0.5 L 13.5 0.5 C 16.5 0.5 16.5 0.5 16.5 3.5 L 16.5 13.5 C 16.5 16.5 16.5 16.5 13.5 16.5 L 3.5 16.5 C 0.5 16.5 0.5 16.5 0.5 13.5 L 0.5 3.5 C 0.5 0.5 0.5 0.5 3.5 0.5"  stroke="black" stroke-opacity="0.09999999999999999" stroke-width="3" transform="translate(1, 1)"></path><path fill="none" d="M 3.5 0.5 L 13.5 0.5 C 16.5 0.5 16.5 0.5 16.5 3.5 L 16.5 13.5 C 16.5 16.5 16.5 16.5 13.5 16.5 L 3.5 16.5 C 0.5 16.5 0.5 16.5 0.5 13.5 L 0.5 3.5 C 0.5 0.5 0.5 0.5 3.5 0.5"  stroke="black" stroke-opacity="0.15" stroke-width="1" transform="translate(1, 1)"></path><path fill="rgb(255, 255, 255)" fill-opacity=" 0.85" d="M 3.5 0.5 L 13.5 0.5 C 16.5 0.5 16.5 0.5 16.5 3.5 L 16.5 13.5 C 16.5 16.5 16.5 16.5 13.5 16.5 L 3.5 16.5 C 0.5 16.5 0.5 16.5 0.5 13.5 L 0.5 3.5 C 0.5 0.5 0.5 0.5 3.5 0.5"></path><text x="8" style="font-size:12px;color:#000000;fill:#000000;" y="20"></text></g><text x="590" text-anchor="end" style="cursor:pointer;color:#909090;font-size:9px;fill:#909090;" y="395">meta-chart.com</text></svg>