<?xml version="1.0" standalone="no"?><!DOCTYPE svg PUBLIC "-//W3C//DTD SVG 1.1//EN" "http://www.w3.org/Graphics/SVG/1.1/DTD/svg11.dtd"><svg xmlns:xlink="http://www.w3.org/1999/xlink" version="1.1" style="font-family:'lucida grande', 'lucida sans unicode', arial, helvetica, sans-serif;font-size:12px;" xmlns="http://www.w3.org/2000/svg" width="600" height="400"><desc>Created with Highcharts 4.2.7</desc><defs><clipPath id="highcharts-65"><rect x="1" y="1" width="551" height="277"></rect></clipPath></defs><rect x="37" y="48" width="553" height="279" fill="#ffffff"></rect><path fill="rgb(255, 255, 255)" fill-opacity=" .5" d="M 37 327.5 L 590 327.5 590 271.5 37 271.5"></path><path fill="rgb(255, 255, 255)" fill-opacity=" .5" d="M 37 215.5 L 590 215.5 590 160.5 37 160.5"></path><path fill="rgb(255, 255, 255)" fill-opacity=" .5" d="M 37 104.5 L 590 104.5 590 48.5 37 48.5"></path><g class="highcharts-grid"></g><g class="highcharts-grid"><path fill="none" d="M 37 327.5 L 590 327.5" stroke="#C0C0C0" stroke-width="1" opacity="1"></path><path fill="none" d="M 37 271.5 L 590 271.5" stroke="#C0C0C0" stroke-width="1" opacity="1"></path><path fill="none" d="M 37 215.5 L 590 215.5" stroke="#C0C0C0" stroke-width="1" opacity="1"></path><path fill="none" d="M 37 160.5 L 590 160.5" stroke="#C0C0C0" stroke-width="1" opacity="1"></path><path fill="none" d="M 37 104.5 L 590 104.5" stroke="#C0C0C0" stroke-width="1" opacity="1"></path><path fill="none" d="M 37 47.5 L 590 47.5" stroke="#C0C0C0" stroke-width="1" opacity="1"></path></g><rect x="37" y="48" width="553" height="279" stroke="#026FC1" stroke-width="2" fill="none"></rect><g class="highcharts-axis"><path fill="none" d="M 220.5 327 L 220.5 337" stroke="#C0D0E0" stroke-width="1" opacity="1"></path><path fill="none" d="M 405.5 327 L 405.5 337" stroke="#C0D0E0" stroke-width="1" opacity="1"></path><path fill="none" d="M 590.5 327 L 590.5 337" stroke="#C0D0E0" stroke-width="1" opacity="1"></path><path fill="none" d="M 36.5 327 L 36.5 337" stroke="#C0D0E0" stroke-width="1" opacity="1"></path><path fill="none" d="M 37 327.5 L 590 327.5" stroke="#C0D0E0" stroke-width="1"></path></g><g class="highcharts-axis"><path fill="none" d="M 37 327.5 L 27 327.5" stroke="#C0D0E0" stroke-width="1" opacity="1"></path><path fill="none" d="M 37 271.5 L 27 271.5" stroke="#C0D0E0" stroke-width="1" opacity="1"></path><path fill="none" d="M 37 215.5 L 27 215.5" stroke="#C0D0E0" stroke-width="1" opacity="1"></path><path fill="none" d="M 37 160.5 L 27 160.5" stroke="#C0D0E0" stroke-width="1" opacity="1"></path><path fill="none" d="M 37 104.5 L 27 104.5" stroke="#C0D0E0" stroke-width="1" opacity="1"></path><path fill="none" d="M 37 47.5 L 27 47.5" stroke="#C0D0E0" stroke-width="1" opacity="1"></path></g><g class="highcharts-series-group"><g class="highcharts-series highcharts-series-0" transform="translate(37,48) scale(1 1)" clip-path="url(#highcharts-65)"><rect x="47.5" y="117.5" width="89" height="162" stroke="#FFFFFF" stroke-width="1" fill="#d44242" rx="0" ry="0"></rect><rect x="231.5" y="112.5" width="89" height="167" stroke="#FFFFFF" stroke-width="1" fill="#3b46b3" rx="0" ry="0"></rect><rect x="416.5" y="56.5" width="89" height="223" stroke="#FFFFFF" stroke-width="1" fill="#34af24" rx="0" ry="0"></rect></g><g class="highcharts-markers highcharts-series-0" transform="translate(37,48) scale(1 1)" clip-path="none"></g><g class="highcharts-series highcharts-series-1" transform="translate(37,48) scale(1 1)" clip-path="url(#highcharts-65)"></g><g class="highcharts-markers highcharts-series-1" transform="translate(37,48) scale(1 1)" clip-path="none"></g></g><text x="300" text-anchor="middle" class="highcharts-title" style="color:#000000;font-size:20px;font-family:'times new roman', sans-serif;text-transform:none;fill:#000000;width:536px;" y="25"><tspan>Tweets sobre o candidato Haddad</tspan></text><g class="highcharts-data-labels highcharts-series-0" transform="translate(37,48) scale(1 1)" opacity="1"><g style="cursor:pointer;" transform="translate(81,95)"><text x="5" style="font-size:10px;font-weight:bold;font-family:'arial', sans-serif;color:#000000;text-shadow:none;fill:#000000;text-rendering:geometricprecision;" y="15"><tspan>29</tspan></text></g><g style="cursor:pointer;" transform="translate(265,90)"><text x="5" style="font-size:10px;font-weight:bold;font-family:'arial', sans-serif;color:#000000;text-shadow:none;fill:#000000;text-rendering:geometricprecision;" y="15"><tspan>30</tspan></text></g><g style="cursor:pointer;" transform="translate(450,34)"><text x="5" style="font-size:10px;font-weight:bold;font-family:'arial', sans-serif;color:#000000;text-shadow:none;fill:#000000;text-rendering:geometricprecision;" y="15"><tspan>40</tspan></text></g></g><g class="highcharts-data-labels highcharts-series-1" transform="translate(37,48) scale(1 1)" opacity="1"></g><g class="highcharts-legend" transform="translate(235,360)"><g><g><g class="highcharts-legend-item" transform="translate(8,3)"><text x="21" style="color:#333;font-size:9pt;font-weight:normal;cursor:pointer;font-family:'lucida grande','lucida sans unicode',arial,helvetica,sans-serif;text-transform:none;fill:#333;" text-anchor="start" y="15"><tspan>Em porcentagem</tspan></text><rect x="0" y="4" width="16" height="12" fill="#CCC"></rect></g></g></g></g><g class="highcharts-axis-labels highcharts-xaxis-labels"><text x="129.16666666666669" style="color:#000000;cursor:default;font-size:10px;font-family:'arial', sans-serif;text-transform:none;font-weight:normal;fill:#000000;" text-anchor="middle" transform="translate(0,0)" y="345" opacity="1"><tspan>Negativos (%)</tspan></text><text x="313.5" style="color:#000000;cursor:default;font-size:10px;font-family:'arial', sans-serif;text-transform:none;font-weight:normal;fill:#000000;" text-anchor="middle" transform="translate(0,0)" y="345" opacity="1"><tspan>Neutros (%)</tspan></text><text x="497.8333333333333" style="color:#000000;cursor:default;font-size:10px;font-family:'arial', sans-serif;text-transform:none;font-weight:normal;fill:#000000;" text-anchor="middle" transform="translate(0,0)" y="345" opacity="1"><tspan>Positivos (%)</tspan></text></g><g class="highcharts-axis-labels highcharts-yaxis-labels"><text x="22" style="color:#000000;cursor:default;font-size:10px;font-family:'arial', sans-serif;text-transform:none;font-weight:normal;fill:#000000;width:188px;text-overflow:clip;" text-anchor="end" transform="translate(0,0)" y="331" opacity="1"><tspan>0</tspan></text><text x="22" style="color:#000000;cursor:default;font-size:10px;font-family:'arial', sans-serif;text-transform:none;font-weight:normal;fill:#000000;width:188px;text-overflow:clip;" text-anchor="end" transform="translate(0,0)" y="275" opacity="1"><tspan>10</tspan></text><text x="22" style="color:#000000;cursor:default;font-size:10px;font-family:'arial', sans-serif;text-transform:none;font-weight:normal;fill:#000000;width:188px;text-overflow:clip;" text-anchor="end" transform="translate(0,0)" y="219" opacity="1"><tspan>20</tspan></text><text x="22" style="color:#000000;cursor:default;font-size:10px;font-family:'arial', sans-serif;text-transform:none;font-weight:normal;fill:#000000;width:188px;text-overflow:clip;" text-anchor="end" transform="translate(0,0)" y="163" opacity="1"><tspan>30</tspan></text><text x="22" style="color:#000000;cursor:default;font-size:10px;font-family:'arial', sans-serif;text-transform:none;font-weight:normal;fill:#000000;width:188px;text-overflow:clip;" text-anchor="end" transform="translate(0,0)" y="107" opacity="1"><tspan>40</tspan></text><text x="22" style="color:#000000;cursor:default;font-size:10px;font-family:'arial', sans-serif;text-transform:none;font-weight:normal;fill:#000000;width:188px;text-overflow:clip;" text-anchor="end" transform="translate(0,0)" y="52" opacity="1"><tspan>50</tspan></text></g><g class="highcharts-tooltip" display="none" style="cursor:default;padding:0;pointer-events:none;white-space:nowrap;" transform="translate(0,0)"><path fill="none" d="M 3.5 0.5 L 13.5 0.5 C 16.5 0.5 16.5 0.5 16.5 3.5 L 16.5 13.5 C 16.5 16.5 16.5 16.5 13.5 16.5 L 3.5 16.5 C 0.5 16.5 0.5 16.5 0.5 13.5 L 0.5 3.5 C 0.5 0.5 0.5 0.5 3.5 0.5"  stroke="black" stroke-opacity="0.049999999999999996" stroke-width="5" transform="translate(1, 1)"></path><path fill="none" d="M 3.5 0.5 L 13.5 0.5 C 16.5 0.5 16.5 0.5 16.5 3.5 L 16.5 13.5 C 16.5 16.5 16.5 16.5 13.5 16.5 L 3.5 16.5 C 0.5 16.5 0.5 16.5 0.5 13.5 L 0.5 3.5 C 0.5 0.5 0.5 0.5 3.5 0.5"  stroke="black" stroke-opacity="0.09999999999999999" stroke-width="3" transform="translate(1, 1)"></path><path fill="none" d="M 3.5 0.5 L 13.5 0.5 C 16.5 0.5 16.5 0.5 16.5 3.5 L 16.5 13.5 C 16.5 16.5 16.5 16.5 13.5 16.5 L 3.5 16.5 C 0.5 16.5 0.5 16.5 0.5 13.5 L 0.5 3.5 C 0.5 0.5 0.5 0.5 3.5 0.5"  stroke="black" stroke-opacity="0.15" stroke-width="1" transform="translate(1, 1)"></path><path fill="rgb(255, 255, 255)" fill-opacity=" 0.85" d="M 3.5 0.5 L 13.5 0.5 C 16.5 0.5 16.5 0.5 16.5 3.5 L 16.5 13.5 C 16.5 16.5 16.5 16.5 13.5 16.5 L 3.5 16.5 C 0.5 16.5 0.5 16.5 0.5 13.5 L 0.5 3.5 C 0.5 0.5 0.5 0.5 3.5 0.5"></path><text x="8" style="font-size:12px;color:#000000;fill:#000000;" y="20"></text></g><text x="590" text-anchor="end" style="cursor:pointer;color:#909090;font-size:9px;fill:#909090;" y="395">meta-chart.com</text></svg>