<?xml version="1.0" standalone="no"?><!DOCTYPE svg PUBLIC "-//W3C//DTD SVG 1.1//EN" "http://www.w3.org/Graphics/SVG/1.1/DTD/svg11.dtd"><svg xmlns:xlink="http://www.w3.org/1999/xlink" version="1.1" style="font-family:'lucida grande', 'lucida sans unicode', arial, helvetica, sans-serif;font-size:12px;" xmlns="http://www.w3.org/2000/svg" width="600" height="400"><desc>Created with Highcharts 4.2.7</desc><defs><clipPath id="highcharts-118"><rect x="1" y="1" width="277" height="516"></rect></clipPath></defs><rect x="72" y="48" width="518" height="279" fill="#ffffff"></rect><path fill="rgb(255, 255, 255)" fill-opacity=" .5" d="M 71.5 48 L 71.5 327 145.5 327 145.5 48"></path><path fill="rgb(255, 255, 255)" fill-opacity=" .5" d="M 219.5 48 L 219.5 327 293.5 327 293.5 48"></path><path fill="rgb(255, 255, 255)" fill-opacity=" .5" d="M 367.5 48 L 367.5 327 441.5 327 441.5 48"></path><path fill="rgb(255, 255, 255)" fill-opacity=" .5" d="M 515.5 48 L 515.5 327 589.5 327 589.5 48"></path><g class="highcharts-grid"></g><g class="highcharts-grid"><path fill="none" d="M 71.5 48 L 71.5 327" stroke="#C0C0C0" stroke-width="1" opacity="1"></path><path fill="none" d="M 145.5 48 L 145.5 327" stroke="#C0C0C0" stroke-width="1" opacity="1"></path><path fill="none" d="M 219.5 48 L 219.5 327" stroke="#C0C0C0" stroke-width="1" opacity="1"></path><path fill="none" d="M 293.5 48 L 293.5 327" stroke="#C0C0C0" stroke-width="1" opacity="1"></path><path fill="none" d="M 367.5 48 L 367.5 327" stroke="#C0C0C0" stroke-width="1" opacity="1"></path><path fill="none" d="M 441.5 48 L 441.5 327" stroke="#C0C0C0" stroke-width="1" opacity="1"></path><path fill="none" d="M 515.5 48 L 515.5 327" stroke="#C0C0C0" stroke-width="1" opacity="1"></path><path fill="none" d="M 590.5 48 L 590.5 327" stroke="#C0C0C0" stroke-width="1" opacity="1"></path></g><rect x="72" y="48" width="518" height="279" stroke="#026FC1" stroke-width="2" fill="none"></rect><g class="highcharts-axis"><path fill="none" d="M 72 104.5 L 62 104.5" stroke="#C0D0E0" stroke-width="1" opacity="1"></path><path fill="none" d="M 72 160.5 L 62 160.5" stroke="#C0D0E0" stroke-width="1" opacity="1"></path><path fill="none" d="M 72 215.5 L 62 215.5" stroke="#C0D0E0" stroke-width="1" opacity="1"></path><path fill="none" d="M 72 271.5 L 62 271.5" stroke="#C0D0E0" stroke-width="1" opacity="1"></path><path fill="none" d="M 72 327.5 L 62 327.5" stroke="#C0D0E0" stroke-width="1" opacity="1"></path><path fill="none" d="M 72 47.5 L 62 47.5" stroke="#C0D0E0" stroke-width="1" opacity="1"></path><path fill="none" d="M 71.5 48 L 71.5 327" stroke="#C0D0E0" stroke-width="1"></path></g><g class="highcharts-axis"><path fill="none" d="M 71.5 327 L 71.5 337" stroke="#C0D0E0" stroke-width="1" opacity="1"></path><path fill="none" d="M 145.5 327 L 145.5 337" stroke="#C0D0E0" stroke-width="1" opacity="1"></path><path fill="none" d="M 219.5 327 L 219.5 337" stroke="#C0D0E0" stroke-width="1" opacity="1"></path><path fill="none" d="M 293.5 327 L 293.5 337" stroke="#C0D0E0" stroke-width="1" opacity="1"></path><path fill="none" d="M 367.5 327 L 367.5 337" stroke="#C0D0E0" stroke-width="1" opacity="1"></path><path fill="none" d="M 441.5 327 L 441.5 337" stroke="#C0D0E0" stroke-width="1" opacity="1"></path><path fill="none" d="M 515.5 327 L 515.5 337" stroke="#C0D0E0" stroke-width="1" opacity="1"></path><path fill="none" d="M 590.5 327 L 590.5 337" stroke="#C0D0E0" stroke-width="1" opacity="1"></path></g><g class="highcharts-series-group"><g class="highcharts-series highcharts-series-0" transform="translate(590,327) rotate(90) scale(-1,1) scale(1 1)" width="518" height="279" clip-path="url(#highcharts-118)"><rect x="237.5" y="74.5" width="27" height="444" stroke="#FFFFFF" stroke-width="1" fill="#50B432" rx="0" ry="0"></rect><rect x="181.5" y="163.5" width="27" height="355" stroke="#FFFFFF" stroke-width="1" fill="#ED561B" rx="0" ry="0"></rect><rect x="125.5" y="163.5" width="27" height="355" stroke="#FFFFFF" stroke-width="1" fill="#DDDF00" rx="0" ry="0"></rect><rect x="69.5" y="178.5" width="27" height="340" stroke="#FFFFFF" stroke-width="1" fill="#24CBE5" rx="0" ry="0"></rect><rect x="14.5" y="192.5" width="27" height="326" stroke="#FFFFFF" stroke-width="1" fill="#e564dd" rx="0" ry="0"></rect></g><g class="highcharts-markers highcharts-series-0" transform="translate(590,327) rotate(90) scale(-1,1) scale(1 1)" width="518" height="279" clip-path="none"></g><g class="highcharts-series highcharts-series-1" transform="translate(590,327) rotate(90) scale(-1,1) scale(1 1)" width="518" height="279" clip-path="url(#highcharts-118)"></g><g class="highcharts-markers highcharts-series-1" transform="translate(590,327) rotate(90) scale(-1,1) scale(1 1)" width="518" height="279" clip-path="none"></g></g><text x="300" text-anchor="middle" class="highcharts-title" style="color:#000000;font-size:20px;font-family:'times new roman', sans-serif;text-transform:none;fill:#000000;width:536px;" y="25"><tspan>Os candidatos mais odiados</tspan></text><g class="highcharts-data-labels highcharts-series-0" transform="translate(72,48) scale(1 1)" opacity="1"><g style="cursor:pointer;" transform="translate(433,17)"><text x="5" style="font-size:10px;font-weight:bold;font-family:'arial', sans-serif;color:#000000;text-shadow:none;fill:#000000;text-rendering:geometricprecision;" y="15"><tspan>30</tspan></text></g><g style="cursor:pointer;" transform="translate(344,73)"><text x="5" style="font-size:10px;font-weight:bold;font-family:'arial', sans-serif;color:#000000;text-shadow:none;fill:#000000;text-rendering:geometricprecision;" y="15"><tspan>24</tspan></text></g><g style="cursor:pointer;" transform="translate(344,129)"><text x="5" style="font-size:10px;font-weight:bold;font-family:'arial', sans-serif;color:#000000;text-shadow:none;fill:#000000;text-rendering:geometricprecision;" y="15"><tspan>24</tspan></text></g><g style="cursor:pointer;" transform="translate(329,185)"><text x="5" style="font-size:10px;font-weight:bold;font-family:'arial', sans-serif;color:#000000;text-shadow:none;fill:#000000;text-rendering:geometricprecision;" y="15"><tspan>23</tspan></text></g><g style="cursor:pointer;" transform="translate(315,240)"><text x="5" style="font-size:10px;font-weight:bold;font-family:'arial', sans-serif;color:#000000;text-shadow:none;fill:#000000;text-rendering:geometricprecision;" y="15"><tspan>22</tspan></text></g></g><g class="highcharts-data-labels highcharts-series-1" transform="translate(72,48) scale(1 1)" opacity="1"></g><g class="highcharts-legend" transform="translate(235,360)"><g><g><g class="highcharts-legend-item" transform="translate(8,3)"><text x="21" style="color:#333;font-size:9pt;font-weight:normal;cursor:pointer;font-family:'lucida grande','lucida sans unicode',arial,helvetica,sans-serif;text-transform:none;fill:#333;" text-anchor="start" y="15"><tspan>Em porcentagem</tspan></text><rect x="0" y="4" width="16" height="12" fill="#CCC"></rect></g></g></g></g><g class="highcharts-axis-labels highcharts-xaxis-labels"><text x="57" style="color:#000000;cursor:default;font-size:10px;font-family:'arial', sans-serif;text-transform:none;font-weight:normal;fill:#000000;width:188px;text-overflow:clip;" text-anchor="end" transform="translate(0,0)" y="79" opacity="1"><tspan>Haddad</tspan></text><text x="57" style="color:#000000;cursor:default;font-size:10px;font-family:'arial', sans-serif;text-transform:none;font-weight:normal;fill:#000000;width:188px;text-overflow:clip;" text-anchor="end" transform="translate(0,0)" y="135" opacity="1"><tspan>Bolsonaro</tspan></text><text x="57" style="color:#000000;cursor:default;font-size:10px;font-family:'arial', sans-serif;text-transform:none;font-weight:normal;fill:#000000;width:188px;text-overflow:clip;" text-anchor="end" transform="translate(0,0)" y="191" opacity="1"><tspan>Ciro</tspan></text><text x="57" style="color:#000000;cursor:default;font-size:10px;font-family:'arial', sans-serif;text-transform:none;font-weight:normal;fill:#000000;width:188px;text-overflow:clip;" text-anchor="end" transform="translate(0,0)" y="247" opacity="1"><tspan>Amoedo</tspan></text><text x="57" style="color:#000000;cursor:default;font-size:10px;font-family:'arial', sans-serif;text-transform:none;font-weight:normal;fill:#000000;width:188px;text-overflow:clip;" text-anchor="end" transform="translate(0,0)" y="303" opacity="1"><tspan>Marina</tspan></text></g><g class="highcharts-axis-labels highcharts-yaxis-labels"><text x="72" style="color:#000000;cursor:default;font-size:10px;font-family:'arial', sans-serif;text-transform:none;font-weight:normal;fill:#000000;width:64px;text-overflow:clip;" text-anchor="middle" transform="translate(0,0)" y="345" opacity="1"><tspan>0</tspan></text><text x="146" style="color:#000000;cursor:default;font-size:10px;font-family:'arial', sans-serif;text-transform:none;font-weight:normal;fill:#000000;width:64px;text-overflow:clip;" text-anchor="middle" transform="translate(0,0)" y="345" opacity="1"><tspan>5</tspan></text><text x="220" style="color:#000000;cursor:default;font-size:10px;font-family:'arial', sans-serif;text-transform:none;font-weight:normal;fill:#000000;width:64px;text-overflow:clip;" text-anchor="middle" transform="translate(0,0)" y="345" opacity="1"><tspan>10</tspan></text><text x="294" style="color:#000000;cursor:default;font-size:10px;font-family:'arial', sans-serif;text-transform:none;font-weight:normal;fill:#000000;width:64px;text-overflow:clip;" text-anchor="middle" transform="translate(0,0)" y="345" opacity="1"><tspan>15</tspan></text><text x="368" style="color:#000000;cursor:default;font-size:10px;font-family:'arial', sans-serif;text-transform:none;font-weight:normal;fill:#000000;width:64px;text-overflow:clip;" text-anchor="middle" transform="translate(0,0)" y="345" opacity="1"><tspan>20</tspan></text><text x="442" style="color:#000000;cursor:default;font-size:10px;font-family:'arial', sans-serif;text-transform:none;font-weight:normal;fill:#000000;width:64px;text-overflow:clip;" text-anchor="middle" transform="translate(0,0)" y="345" opacity="1"><tspan>25</tspan></text><text x="516" style="color:#000000;cursor:default;font-size:10px;font-family:'arial', sans-serif;text-transform:none;font-weight:normal;fill:#000000;width:64px;text-overflow:clip;" text-anchor="middle" transform="translate(0,0)" y="345" opacity="1"><tspan>30</tspan></text><text x="584" style="color:#000000;cursor:default;font-size:10px;font-family:'arial', sans-serif;text-transform:none;font-weight:normal;fill:#000000;width:64px;text-overflow:clip;" text-anchor="middle" transform="translate(0,0)" y="345" opacity="1"><tspan>35</tspan></text></g><g class="highcharts-tooltip" display="none" style="cursor:default;padding:0;pointer-events:none;white-space:nowrap;" transform="translate(0,0)"><path fill="none" d="M 3.5 0.5 L 13.5 0.5 C 16.5 0.5 16.5 0.5 16.5 3.5 L 16.5 13.5 C 16.5 16.5 16.5 16.5 13.5 16.5 L 3.5 16.5 C 0.5 16.5 0.5 16.5 0.5 13.5 L 0.5 3.5 C 0.5 0.5 0.5 0.5 3.5 0.5"  stroke="black" stroke-opacity="0.049999999999999996" stroke-width="5" transform="translate(1, 1)"></path><path fill="none" d="M 3.5 0.5 L 13.5 0.5 C 16.5 0.5 16.5 0.5 16.5 3.5 L 16.5 13.5 C 16.5 16.5 16.5 16.5 13.5 16.5 L 3.5 16.5 C 0.5 16.5 0.5 16.5 0.5 13.5 L 0.5 3.5 C 0.5 0.5 0.5 0.5 3.5 0.5"  stroke="black" stroke-opacity="0.09999999999999999" stroke-width="3" transform="translate(1, 1)"></path><path fill="none" d="M 3.5 0.5 L 13.5 0.5 C 16.5 0.5 16.5 0.5 16.5 3.5 L 16.5 13.5 C 16.5 16.5 16.5 16.5 13.5 16.5 L 3.5 16.5 C 0.5 16.5 0.5 16.5 0.5 13.5 L 0.5 3.5 C 0.5 0.5 0.5 0.5 3.5 0.5"  stroke="black" stroke-opacity="0.15" stroke-width="1" transform="translate(1, 1)"></path><path fill="rgb(255, 255, 255)" fill-opacity=" 0.85" d="M 3.5 0.5 L 13.5 0.5 C 16.5 0.5 16.5 0.5 16.5 3.5 L 16.5 13.5 C 16.5 16.5 16.5 16.5 13.5 16.5 L 3.5 16.5 C 0.5 16.5 0.5 16.5 0.5 13.5 L 0.5 3.5 C 0.5 0.5 0.5 0.5 3.5 0.5"></path><text x="8" style="font-size:12px;color:#000000;fill:#000000;" y="20"></text></g><text x="590" text-anchor="end" style="cursor:pointer;color:#909090;font-size:9px;fill:#909090;" y="395">meta-chart.com</text></svg>